<?xml version="1.0" encoding="UTF-8" standalone="no"?>
<svg
   xmlns:dc="http://purl.org/dc/elements/1.1/"
   xmlns:cc="http://creativecommons.org/ns#"
   xmlns:rdf="http://www.w3.org/1999/02/22-rdf-syntax-ns#"
   xmlns:svg="http://www.w3.org/2000/svg"
   xmlns="http://www.w3.org/2000/svg"
   width="98.418594mm"
   height="23.02494mm"
   viewBox="0 0 348.7273 81.584435"
   version="1.1">
  <metadata>
    <rdf:RDF>
      <cc:Work
         rdf:about="">
        <dc:format>image/svg+xml</dc:format>
        <dc:type
           rdf:resource="http://purl.org/dc/dcmitype/StillImage" />
        <dc:title></dc:title>
      </cc:Work>
    </rdf:RDF>
  </metadata>
  <g
     transform="translate(-187.32454,-343.59485)">
    <path
       style="fill:#000000"
       d="m 269.16942,378.06954 q 3.89325,0 6.03814,2.6676 2.16292,2.64957 2.16292,7.51614 0,4.86656 -2.18094,7.57021 -2.16292,2.68562 -6.02012,2.68562 -1.9286,0 -3.53276,-0.70295 -1.58614,-0.72097 -2.6676,-2.19897 l -0.21629,0 -0.63085,2.54143 -2.14489,0 0,-28.04582 2.99203,0 0,6.81319 q 0,2.28909 -0.14419,4.10954 l 0.14419,0 q 2.09082,-2.95599 6.20036,-2.95599 z m -0.43258,2.50538 q -3.06413,0 -4.41596,1.76639 -1.35182,1.74835 -1.35182,5.91197 0,4.16361 1.38787,5.96604 1.38787,1.78441 4.45201,1.78441 2.75771,0 4.10954,-2.0007 1.35182,-2.01872 1.35182,-5.7858 0,-3.8572 -1.35182,-5.74975 -1.35183,-1.89256 -4.18164,-1.89256 z" />
    <path
       style="fill:#000000"
       d="m 290.96081,398.50911 q -4.37991,0 -6.92134,-2.6676 -2.5234,-2.6676 -2.5234,-7.40799 0,-4.77644 2.34316,-7.58823 2.36118,-2.81179 6.32653,-2.81179 3.71301,0 5.87592,2.4513 2.16292,2.43328 2.16292,6.43468 l 0,1.89255 -13.60835,0 q 0.0901,3.47869 1.74836,5.28112 1.67626,1.80243 4.70434,1.80243 3.1903,0 6.30851,-1.3338 l 0,2.6676 q -1.58614,0.68492 -3.01006,0.97331 -1.4059,0.30642 -3.40659,0.30642 z m -0.8111,-17.97024 q -2.37921,0 -3.80313,1.55009 -1.40589,1.5501 -1.65823,4.28979 l 10.32792,0 q 0,-2.82982 -1.2617,-4.32583 -1.2617,-1.51405 -3.60486,-1.51405 z" />
    <path
       style="fill:#000000"
       d="m 316.82568,398.14862 0,-12.77923 q 0,-2.41526 -1.09948,-3.60486 -1.09948,-1.18961 -3.44264,-1.18961 -3.11821,0 -4.56015,1.69429 -1.42392,1.69428 -1.42392,5.55148 l 0,10.32793 -2.99203,0 0,-28.04582 2.99203,0 0,8.48945 q 0,1.53207 -0.14419,2.54143 l 0.18024,0 q 0.88319,-1.42392 2.50538,-2.23502 1.64021,-0.82912 3.73103,-0.82912 3.62288,0 5.42531,1.73034 1.82046,1.71231 1.82046,5.46136 l 0,12.88738 -2.99204,0 z" />
    <path
       style="fill:#000000"
       d="m 328.93802,398.14862 -2.99204,0 0,-19.75464 2.99204,0 0,19.75464 z m -3.24438,-25.10786 q 0,-1.02738 0.50468,-1.49601 0.50468,-0.48666 1.2617,-0.48666 0.72098,0 1.24368,0.48666 0.52271,0.48665 0.52271,1.49601 0,1.00936 -0.52271,1.51405 -0.5227,0.48665 -1.24368,0.48665 -0.75702,0 -1.2617,-0.48665 -0.50468,-0.50469 -0.50468,-1.51405 z" />
    <path
       style="fill:#000000"
       d="m 348.83685,398.14862 0,-12.77923 q 0,-2.41526 -1.09948,-3.60486 -1.09948,-1.18961 -3.44264,-1.18961 -3.10018,0 -4.54213,1.67626 -1.44194,1.67626 -1.44194,5.53347 l 0,10.36397 -2.99204,0 0,-19.75464 2.43329,0 0.48665,2.70365 0.1442,0 q 0.91924,-1.45997 2.57747,-2.25304 1.65824,-0.81109 3.69498,-0.81109 3.56882,0 5.37125,1.73033 1.80243,1.71231 1.80243,5.49741 l 0,12.88738 -2.99204,0 z" />
    <path
       style="fill:#000000"
       d="m 371.40328,395.49905 -0.16222,0 q -2.0728,3.01006 -6.20036,3.01006 -3.87523,0 -6.03815,-2.64958 -2.14489,-2.64957 -2.14489,-7.53416 0,-4.88458 2.16292,-7.58823 2.16291,-2.70364 6.02012,-2.70364 4.01942,0 6.16431,2.91993 l 0.23431,0 -0.12617,-1.42392 -0.0721,-1.38787 0,-8.03884 2.99203,0 0,28.04582 -2.43328,0 -0.39653,-2.64957 z m -5.98407,0.50468 q 3.06413,0 4.43398,-1.65824 1.38787,-1.67626 1.38787,-5.38926 l 0,-0.63086 q 0,-4.19966 -1.4059,-5.98406 -1.38787,-1.80244 -4.452,-1.80244 -2.63155,0 -4.03745,2.05478 -1.38787,2.03674 -1.38787,5.76777 0,3.78511 1.38787,5.71371 1.38787,1.9286 4.0735,1.9286 z" />
    <path
       style="fill:#000000"
       d="m 380.1631,396.23804 q 0,-1.20762 0.54072,-1.82045 0.55876,-0.63085 1.58614,-0.63085 1.04541,0 1.62219,0.63085 0.5948,0.61283 0.5948,1.82045 0,1.17158 -0.5948,1.80243 -0.5948,0.63086 -1.62219,0.63086 -0.91924,0 -1.53206,-0.55876 -0.5948,-0.57678 -0.5948,-1.87453 z" />
    <path
       style="fill:#000000"
       d="m 403.91913,398.14862 0,-12.77923 q 0,-2.41526 -1.09948,-3.60486 -1.09949,-1.18961 -3.44265,-1.18961 -3.1182,0 -4.56015,1.69429 -1.42392,1.69428 -1.42392,5.55148 l 0,10.32793 -2.99203,0 0,-28.04582 2.99203,0 0,8.48945 q 0,1.53207 -0.14419,2.54143 l 0.18024,0 q 0.88319,-1.42392 2.50538,-2.23502 1.64021,-0.82912 3.73103,-0.82912 3.62289,0 5.42532,1.73034 1.82045,1.71231 1.82045,5.46136 l 0,12.88738 -2.99203,0 z" />
    <path
       style="fill:#000000"
       d="m 419.42002,396.03978 q 0.79307,0 1.53207,-0.10815 0.739,-0.12617 1.17158,-0.25234 l 0,2.28909 q -0.48666,0.23431 -1.44195,0.37851 -0.93726,0.16222 -1.69428,0.16222 -5.73173,0 -5.73173,-6.03815 l 0,-11.75184 -2.82981,0 0,-1.44195 2.82981,-1.24367 1.2617,-4.21769 1.73034,0 0,4.57817 5.73172,0 0,2.32514 -5.73172,0 0,11.62567 q 0,1.78441 0.84714,2.7397 0.84714,0.95529 2.32513,0.95529 z" />
    <path
       style="fill:#000000"
       d="m 451.26898,398.14862 0,-12.85133 q 0,-2.36118 -1.00936,-3.53276 -1.00936,-1.18961 -3.13623,-1.18961 -2.79377,0 -4.12757,1.60417 -1.33379,1.60416 -1.33379,4.93866 l 0,11.03087 -2.99204,0 0,-12.85133 q 0,-2.36118 -1.00936,-3.53276 -1.00936,-1.18961 -3.15425,-1.18961 -2.8118,0 -4.12757,1.69429 -1.29775,1.67626 -1.29775,5.51544 l 0,10.36397 -2.99203,0 0,-19.75464 2.43328,0 0.48665,2.70365 0.1442,0 q 0.84714,-1.44195 2.37921,-2.25304 1.55009,-0.81109 3.46066,-0.81109 4.63225,0 6.05617,3.35252 l 0.14419,0 q 0.88319,-1.55009 2.55945,-2.45131 1.67626,-0.90121 3.82116,-0.90121 3.35252,0 5.01075,1.73033 1.67626,1.71231 1.67626,5.49741 l 0,12.88738 -2.99203,0 z" />
    <path
       style="fill:#000000"
       d="m 463.39933,398.14862 -2.99204,0 0,-28.04582 2.99204,0 0,28.04582 z" />
  </g>
  <rect
     rx="12.6"
     ry="12.6"
     y="0"
     x="0"
     height="81.584435"
     width="348.72729"
     style="opacity:1;fill:#38283c;fill-opacity:1;fill-rule:evenodd;stroke:none;stroke-width:0.84414262px;stroke-linecap:butt;stroke-linejoin:miter;stroke-miterlimit:4;stroke-dasharray:none;stroke-dashoffset:0;stroke-opacity:1;marker:none" />
</svg>
